<svg width="46" height="15" viewBox="0 0 46 15" fill="none" xmlns="http://www.w3.org/2000/svg">
<path d="M4.43764 14.126C3.60964 14.126 2.87764 13.982 2.24164 13.694C1.61764 13.406 1.12564 13.004 0.765641 12.488C0.405641 11.972 0.213641 11.396 0.189641 10.76H1.52164C1.58164 11.372 1.85164 11.912 2.33164 12.38C2.81164 12.836 3.51364 13.064 4.43764 13.064C5.28964 13.064 5.96164 12.848 6.45364 12.416C6.95764 11.972 7.20964 11.414 7.20964 10.742C7.20964 10.202 7.07164 9.77 6.79564 9.446C6.51964 9.11 6.17764 8.864 5.76964 8.708C5.36164 8.54 4.79764 8.36 4.07764 8.168C3.23764 7.94 2.57164 7.718 2.07964 7.502C1.58764 7.286 1.16764 6.95 0.819641 6.494C0.471641 6.038 0.297641 5.42 0.297641 4.64C0.297641 3.992 0.465641 3.416 0.801641 2.912C1.13764 2.396 1.61164 1.994 2.22364 1.706C2.83564 1.418 3.53764 1.274 4.32964 1.274C5.49364 1.274 6.42964 1.562 7.13764 2.138C7.85764 2.702 8.27164 3.434 8.37964 4.334H7.01164C6.92764 3.818 6.64564 3.362 6.16564 2.966C5.68564 2.558 5.03764 2.354 4.22164 2.354C3.46564 2.354 2.83564 2.558 2.33164 2.966C1.82764 3.362 1.57564 3.908 1.57564 4.604C1.57564 5.132 1.71364 5.558 1.98964 5.882C2.26564 6.206 2.60764 6.452 3.01564 6.62C3.43564 6.788 3.99964 6.968 4.70764 7.16C5.52364 7.388 6.18364 7.616 6.68764 7.844C7.19164 8.06 7.61764 8.396 7.96564 8.852C8.31364 9.308 8.48764 9.92 8.48764 10.688C8.48764 11.276 8.33164 11.834 8.01964 12.362C7.70764 12.89 7.24564 13.316 6.63364 13.64C6.02164 13.964 5.28964 14.126 4.43764 14.126ZM10.3464 9.086C10.3464 8.066 10.5504 7.178 10.9584 6.422C11.3664 5.654 11.9304 5.066 12.6504 4.658C13.3704 4.238 14.1924 4.028 15.1164 4.028C16.3284 4.028 17.3244 4.328 18.1044 4.928C18.8964 5.528 19.4064 6.344 19.6344 7.376H18.2844C18.1164 6.668 17.7504 6.116 17.1864 5.72C16.6344 5.312 15.9444 5.108 15.1164 5.108C14.4564 5.108 13.8624 5.258 13.3344 5.558C12.8064 5.858 12.3864 6.308 12.0744 6.908C11.7744 7.496 11.6244 8.222 11.6244 9.086C11.6244 9.95 11.7744 10.682 12.0744 11.282C12.3864 11.882 12.8064 12.332 13.3344 12.632C13.8624 12.932 14.4564 13.082 15.1164 13.082C15.9444 13.082 16.6344 12.884 17.1864 12.488C17.7504 12.08 18.1164 11.516 18.2844 10.796H19.6344C19.4064 11.804 18.8964 12.614 18.1044 13.226C17.3124 13.838 16.3164 14.144 15.1164 14.144C14.1924 14.144 13.3704 13.94 12.6504 13.532C11.9304 13.112 11.3664 12.524 10.9584 11.768C10.5504 11 10.3464 10.106 10.3464 9.086ZM23.2215 5.918C23.4975 5.306 23.9175 4.832 24.4815 4.496C25.0575 4.16 25.7595 3.992 26.5875 3.992V5.306H26.2455C25.3335 5.306 24.6015 5.552 24.0495 6.044C23.4975 6.536 23.2215 7.358 23.2215 8.51V14H21.9615V4.172H23.2215V5.918ZM32.785 14.144C31.861 14.144 31.027 13.94 30.283 13.532C29.551 13.112 28.969 12.524 28.537 11.768C28.117 11 27.907 10.106 27.907 9.086C27.907 8.066 28.123 7.178 28.555 6.422C28.987 5.654 29.575 5.066 30.319 4.658C31.063 4.238 31.897 4.028 32.821 4.028C33.745 4.028 34.579 4.238 35.323 4.658C36.079 5.066 36.667 5.654 37.087 6.422C37.519 7.178 37.735 8.066 37.735 9.086C37.735 10.094 37.519 10.982 37.087 11.75C36.655 12.518 36.061 13.112 35.305 13.532C34.549 13.94 33.709 14.144 32.785 14.144ZM32.785 13.046C33.433 13.046 34.033 12.902 34.585 12.614C35.137 12.314 35.581 11.87 35.917 11.282C36.265 10.682 36.439 9.95 36.439 9.086C36.439 8.222 36.271 7.496 35.935 6.908C35.599 6.308 35.155 5.864 34.603 5.576C34.051 5.276 33.451 5.126 32.803 5.126C32.155 5.126 31.555 5.276 31.003 5.576C30.451 5.864 30.007 6.308 29.671 6.908C29.347 7.496 29.185 8.222 29.185 9.086C29.185 9.95 29.347 10.682 29.671 11.282C30.007 11.87 30.445 12.314 30.985 12.614C31.537 12.902 32.137 13.046 32.785 13.046ZM41.2918 0.68V14H40.0318V0.68H41.2918ZM45.4051 0.68V14H44.1451V0.68H45.4051Z" fill="white"/>
</svg>
